<svg version="1.1" viewBox="0.0 0.0 600.0 371.0" fill="none" stroke="none" stroke-linecap="square" stroke-miterlimit="10" width="600" height="371" xmlns:xlink="http://www.w3.org/1999/xlink" xmlns="http://www.w3.org/2000/svg"><path fill="#ffffff" d="M0 0L600.0 0L600.0 371.0L0 371.0L0 0Z" fill-rule="nonzero"/><path stroke="#333333" stroke-width="1.0" stroke-linecap="butt" d="M52.5 300.5L581.5 300.5" fill-rule="nonzero"/><path stroke="#cccccc" stroke-width="1.0" stroke-linecap="butt" d="M52.5 240.5L581.5 240.5" fill-rule="nonzero"/><path stroke="#cccccc" stroke-width="1.0" stroke-linecap="butt" d="M52.5 181.5L581.5 181.5" fill-rule="nonzero"/><path stroke="#cccccc" stroke-width="1.0" stroke-linecap="butt" d="M52.5 121.5L581.5 121.5" fill-rule="nonzero"/><path stroke="#cccccc" stroke-width="1.0" stroke-linecap="butt" d="M52.5 61.5L581.5 61.5" fill-rule="nonzero"/><clipPath id="id_0"><path d="M52.55 61.916668L581.45 61.916668L581.45 300.45L52.55 300.45L52.55 61.916668Z" clip-rule="nonzero"/></clipPath><path stroke="#4285f4" stroke-width="2.0" stroke-linecap="butt" clip-path="url(#id_0)" d="M81.45749 184.18886L81.45749 268.0834" fill-rule="nonzero"/><path stroke="#4285f4" stroke-width="2.0" stroke-linecap="butt" clip-path="url(#id_0)" d="M81.45749 294.25766L81.45749 225.931" fill-rule="nonzero"/><path fill="#4285f4" clip-path="url(#id_0)" d="M66.53907 224.931L96.375916 224.931L96.375916 269.0834L66.53907 269.0834L66.53907 224.931Z" fill-rule="nonzero"/><path stroke="#4285f4" stroke-width="2.0" stroke-linecap="butt" clip-path="url(#id_0)" d="M124.2834 110.57747L124.2834 219.27234" fill-rule="nonzero"/><path stroke="#4285f4" stroke-width="2.0" stroke-linecap="butt" clip-path="url(#id_0)" d="M124.2834 267.15076L124.2834 157.98955" fill-rule="nonzero"/><path fill="#4285f4" clip-path="url(#id_0)" d="M109.36498 156.98955L139.20183 156.98955L139.20183 220.27234L109.36498 220.27234L109.36498 156.98955Z" fill-rule="nonzero"/><path stroke="#4285f4" stroke-width="2.0" stroke-linecap="butt" clip-path="url(#id_0)" d="M167.10931 124.47919L167.10931 264.7833" fill-rule="nonzero"/><path stroke="#4285f4" stroke-width="2.0" stroke-linecap="butt" clip-path="url(#id_0)" d="M167.10931 293.5564L167.10931 205.0462" fill-rule="nonzero"/><path fill="#4285f4" clip-path="url(#id_0)" d="M152.19089 204.0462L182.02773 204.0462L182.02773 265.7833L152.19089 265.7833L152.19089 204.0462Z" fill-rule="nonzero"/><path stroke="#4285f4" stroke-width="2.0" stroke-linecap="butt" clip-path="url(#id_0)" d="M209.93523 200.19444L209.93523 272.43546" fill-rule="nonzero"/><path stroke="#4285f4" stroke-width="2.0" stroke-linecap="butt" clip-path="url(#id_0)" d="M209.93523 291.4525L209.93523 238.37408" fill-rule="nonzero"/><path fill="#4285f4" clip-path="url(#id_0)" d="M195.0168 237.37408L224.85364 237.37408L224.85364 273.43546L195.0168 273.43546L195.0168 237.37408Z" fill-rule="nonzero"/><path stroke="#4285f4" stroke-width="2.0" stroke-linecap="butt" clip-path="url(#id_0)" d="M252.76114 172.50072L252.76114 250.52855" fill-rule="nonzero"/><path stroke="#4285f4" stroke-width="2.0" stroke-linecap="butt" clip-path="url(#id_0)" d="M252.76114 292.62134L252.76114 211.99707" fill-rule="nonzero"/><path fill="#4285f4" clip-path="url(#id_0)" d="M237.84271 210.99707L267.67957 210.99707L267.67957 251.52855L237.84271 251.52855L237.84271 210.99707Z" fill-rule="nonzero"/><path stroke="#4285f4" stroke-width="2.0" stroke-linecap="butt" clip-path="url(#id_0)" d="M295.58704 187.34227L295.58704 259.55347" fill-rule="nonzero"/><path stroke="#4285f4" stroke-width="2.0" stroke-linecap="butt" clip-path="url(#id_0)" d="M295.58704 270.30417L295.58704 218.94913" fill-rule="nonzero"/><path fill="#4285f4" clip-path="url(#id_0)" d="M280.6686 217.94913L310.50546 217.94913L310.50546 260.55347L280.6686 260.55347L280.6686 217.94913Z" fill-rule="nonzero"/><path stroke="#4285f4" stroke-width="2.0" stroke-linecap="butt" clip-path="url(#id_0)" d="M338.41296 145.28883L338.41296 275.9717" fill-rule="nonzero"/><path stroke="#4285f4" stroke-width="2.0" stroke-linecap="butt" clip-path="url(#id_0)" d="M338.41296 293.79016L338.41296 224.85402" fill-rule="nonzero"/><path fill="#4285f4" clip-path="url(#id_0)" d="M323.49454 223.85402L353.3314 223.85402L353.3314 276.9717L323.49454 276.9717L323.49454 223.85402Z" fill-rule="nonzero"/><path stroke="#4285f4" stroke-width="2.0" stroke-linecap="butt" clip-path="url(#id_0)" d="M381.23886 193.8924L381.23886 266.74286" fill-rule="nonzero"/><path stroke="#4285f4" stroke-width="2.0" stroke-linecap="butt" clip-path="url(#id_0)" d="M381.23886 294.95895L381.23886 216.79398" fill-rule="nonzero"/><path fill="#4285f4" clip-path="url(#id_0)" d="M366.32043 215.79398L396.1573 215.79398L396.1573 267.74286L366.32043 267.74286L366.32043 215.79398Z" fill-rule="nonzero"/><path stroke="#4285f4" stroke-width="2.0" stroke-linecap="butt" clip-path="url(#id_0)" d="M424.0648 138.27596L424.0648 244.24916" fill-rule="nonzero"/><path stroke="#4285f4" stroke-width="2.0" stroke-linecap="butt" clip-path="url(#id_0)" d="M424.0648 284.79266L424.0648 198.30168" fill-rule="nonzero"/><path fill="#4285f4" clip-path="url(#id_0)" d="M409.14636 197.30168L438.98322 197.30168L438.98322 245.24916L409.14636 245.24916L409.14636 197.30168Z" fill-rule="nonzero"/><path stroke="#4285f4" stroke-width="2.0" stroke-linecap="butt" clip-path="url(#id_0)" d="M466.8907 100.8787L466.8907 230.1089" fill-rule="nonzero"/><path stroke="#4285f4" stroke-width="2.0" stroke-linecap="butt" clip-path="url(#id_0)" d="M466.8907 260.13788L466.8907 165.96013" fill-rule="nonzero"/><path fill="#4285f4" clip-path="url(#id_0)" d="M451.97226 164.96013L481.8091 164.96013L481.8091 231.10889L451.97226 231.10889L451.97226 164.96013Z" fill-rule="nonzero"/><path stroke="#4285f4" stroke-width="2.0" stroke-linecap="butt" clip-path="url(#id_0)" d="M509.7166 160.11607L509.7166 249.2703" fill-rule="nonzero"/><path stroke="#4285f4" stroke-width="2.0" stroke-linecap="butt" clip-path="url(#id_0)" d="M509.7166 291.92004L509.7166 212.4646" fill-rule="nonzero"/><path fill="#4285f4" clip-path="url(#id_0)" d="M494.7982 211.4646L524.635 211.4646L524.635 250.2703L494.7982 250.2703L494.7982 211.4646Z" fill-rule="nonzero"/><path stroke="#4285f4" stroke-width="2.0" stroke-linecap="butt" clip-path="url(#id_0)" d="M552.5425 179.16534L552.5425 251.08553" fill-rule="nonzero"/><path stroke="#4285f4" stroke-width="2.0" stroke-linecap="butt" clip-path="url(#id_0)" d="M552.5425 286.89655L552.5425 222.74777" fill-rule="nonzero"/><path fill="#4285f4" clip-path="url(#id_0)" d="M537.6241 221.74777L567.46094 221.74777L567.46094 252.08554L537.6241 252.08554L537.6241 221.74777Z" fill-rule="nonzero"/><path fill="#000000" d="M285.42188 349.45L285.42188 340.85626L288.39062 340.85626Q289.39062 340.85626 289.92188 340.98126Q290.65625 341.15314 291.17188 341.59064Q291.85938 342.16876 292.1875 343.075Q292.53125 343.96564 292.53125 345.10626Q292.53125 346.09064 292.29688 346.84064Q292.07812 347.59064 291.71875 348.09064Q291.35938 348.59064 290.92188 348.8719Q290.5 349.15314 289.90625 349.3094Q289.3125 349.45 288.53125 349.45L285.42188 349.45ZM286.5625 348.4344L288.39062 348.4344Q289.25 348.4344 289.73438 348.27814Q290.21875 348.1219 290.5 347.825Q290.90625 347.4344 291.125 346.7469Q291.35938 346.0594 291.35938 345.09064Q291.35938 343.7469 290.90625 343.02814Q290.46875 342.29376 289.84375 342.04376Q289.375 341.8719 288.375 341.8719L286.5625 341.8719L286.5625 348.4344ZM298.35938 348.6844Q297.76562 349.1844 297.21875 349.3875Q296.6875 349.59064 296.0625 349.59064Q295.03125 349.59064 294.48438 349.09064Q293.9375 348.59064 293.9375 347.8094Q293.9375 347.35626 294.14062 346.98126Q294.34375 346.59064 294.6875 346.3719Q295.03125 346.1375 295.45312 346.02814Q295.75 345.9344 296.39062 345.85626Q297.65625 345.71564 298.26562 345.4969Q298.26562 345.27814 298.26562 345.23126Q298.26562 344.575 297.96875 344.3094Q297.5625 343.96564 296.76562 343.96564Q296.03125 343.96564 295.67188 344.23126Q295.3125 344.48126 295.14062 345.1375L294.10938 344.9969Q294.25 344.34064 294.57812 343.9344Q294.90625 343.52814 295.51562 343.3094Q296.125 343.09064 296.92188 343.09064Q297.71875 343.09064 298.21875 343.27814Q298.71875 343.46564 298.95312 343.7469Q299.1875 344.02814 299.28125 344.46564Q299.32812 344.73126 299.32812 345.4344L299.32812 346.84064Q299.32812 348.3094 299.39062 348.7Q299.46875 349.09064 299.67188 349.45L298.5625 349.45Q298.40625 349.1219 298.35938 348.6844ZM298.26562 346.325Q297.6875 346.5594 296.54688 346.73126Q295.89062 346.825 295.625 346.95Q295.35938 347.0594 295.20312 347.27814Q295.0625 347.4969 295.0625 347.77814Q295.0625 348.2 295.375 348.48126Q295.70312 348.7625 296.3125 348.7625Q296.92188 348.7625 297.39062 348.4969Q297.875 348.23126 298.09375 347.7625Q298.26562 347.40314 298.26562 346.71564L298.26562 346.325ZM301.29688 342.075L301.29688 340.85626L302.35938 340.85626L302.35938 342.075L301.29688 342.075ZM301.29688 349.45L301.29688 343.23126L302.35938 343.23126L302.35938 349.45L301.29688 349.45ZM304.26562 349.45L304.26562 340.85626L305.32812 340.85626L305.32812 349.45L304.26562 349.45ZM307.25 351.84064L307.125 350.85626Q307.46875 350.95 307.73438 350.95Q308.07812 350.95 308.28125 350.825Q308.5 350.71564 308.64062 350.5125Q308.73438 350.34064 308.96875 349.71564Q308.98438 349.6375 309.0625 349.46564L306.6875 343.23126L307.82812 343.23126L309.125 346.825Q309.375 347.5125 309.57812 348.27814Q309.76562 347.54376 310.01562 346.85626L311.34375 343.23126L312.39062 343.23126L310.03125 349.5594Q309.64062 350.575 309.4375 350.96564Q309.15625 351.4969 308.78125 351.73126Q308.42188 351.98126 307.92188 351.98126Q307.625 351.98126 307.25 351.84064ZM311.3125 351.84064L311.3125 351.075L318.3125 351.075L318.3125 351.84064L311.3125 351.84064ZM318.875 347.59064L319.90625 347.4344Q320.0 348.0594 320.39062 348.3875Q320.79688 348.71564 321.53125 348.71564Q322.25 348.71564 322.59375 348.4344Q322.95312 348.1375 322.95312 347.73126Q322.95312 347.3719 322.64062 347.16876Q322.42188 347.02814 321.5625 346.8094Q320.40625 346.5125 319.95312 346.3094Q319.51562 346.09064 319.28125 345.71564Q319.04688 345.34064 319.04688 344.8719Q319.04688 344.46564 319.23438 344.10626Q319.42188 343.7469 319.75 343.5125Q320.0 343.34064 320.42188 343.21564Q320.84375 343.09064 321.34375 343.09064Q322.0625 343.09064 322.60938 343.3094Q323.17188 343.5125 323.4375 343.8719Q323.70312 344.23126 323.79688 344.825L322.76562 344.96564Q322.70312 344.4969 322.35938 344.23126Q322.03125 343.95 321.40625 343.95Q320.6875 343.95 320.375 344.2Q320.0625 344.4344 320.0625 344.7625Q320.0625 344.96564 320.1875 345.1219Q320.32812 345.29376 320.59375 345.40314Q320.75 345.46564 321.53125 345.66876Q322.65625 345.98126 323.09375 346.16876Q323.53125 346.35626 323.78125 346.71564Q324.03125 347.075 324.03125 347.6219Q324.03125 348.15314 323.71875 348.6219Q323.42188 349.075 322.84375 349.34064Q322.26562 349.59064 321.53125 349.59064Q320.3125 349.59064 319.67188 349.09064Q319.04688 348.575 318.875 347.59064ZM330.35938 348.6844Q329.76562 349.1844 329.21875 349.3875Q328.6875 349.59064 328.0625 349.59064Q327.03125 349.59064 326.48438 349.09064Q325.9375 348.59064 325.9375 347.8094Q325.9375 347.35626 326.14062 346.98126Q326.34375 346.59064 326.6875 346.3719Q327.03125 346.1375 327.45312 346.02814Q327.75 345.9344 328.39062 345.85626Q329.65625 345.71564 330.26562 345.4969Q330.26562 345.27814 330.26562 345.23126Q330.26562 344.575 329.96875 344.3094Q329.5625 343.96564 328.76562 343.96564Q328.03125 343.96564 327.67188 344.23126Q327.3125 344.48126 327.14062 345.1375L326.10938 344.9969Q326.25 344.34064 326.57812 343.9344Q326.90625 343.52814 327.51562 343.3094Q328.125 343.09064 328.92188 343.09064Q329.71875 343.09064 330.21875 343.27814Q330.71875 343.46564 330.95312 343.7469Q331.1875 344.02814 331.28125 344.46564Q331.32812 344.73126 331.32812 345.4344L331.32812 346.84064Q331.32812 348.3094 331.39062 348.7Q331.46875 349.09064 331.67188 349.45L330.5625 349.45Q330.40625 349.1219 330.35938 348.6844ZM330.26562 346.325Q329.6875 346.5594 328.54688 346.73126Q327.89062 346.825 327.625 346.95Q327.35938 347.0594 327.20312 347.27814Q327.0625 347.4969 327.0625 347.77814Q327.0625 348.2 327.375 348.48126Q327.70312 348.7625 328.3125 348.7625Q328.92188 348.7625 329.39062 348.4969Q329.875 348.23126 330.09375 347.7625Q330.26562 347.40314 330.26562 346.71564L330.26562 346.325ZM333.26562 349.45L333.26562 340.85626L334.32812 340.85626L334.32812 349.45L333.26562 349.45ZM340.54688 347.45L341.64062 347.575Q341.39062 348.52814 340.6875 349.0594Q339.98438 349.59064 338.90625 349.59064Q337.54688 349.59064 336.73438 348.7469Q335.9375 347.90314 335.9375 346.3875Q335.9375 344.825 336.75 343.96564Q337.5625 343.09064 338.84375 343.09064Q340.09375 343.09064 340.875 343.9344Q341.67188 344.77814 341.67188 346.325Q341.67188 346.41876 341.67188 346.60626L337.03125 346.60626Q337.09375 347.6375 337.60938 348.1844Q338.125 348.71564 338.90625 348.71564Q339.48438 348.71564 339.89062 348.41876Q340.3125 348.10626 340.54688 347.45ZM337.09375 345.7469L340.5625 345.7469Q340.5 344.95 340.17188 344.5594Q339.65625 343.95 338.85938 343.95Q338.125 343.95 337.625 344.4344Q337.14062 344.91876 337.09375 345.7469ZM342.875 347.59064L343.90625 347.4344Q344.0 348.0594 344.39062 348.3875Q344.79688 348.71564 345.53125 348.71564Q346.25 348.71564 346.59375 348.4344Q346.95312 348.1375 346.95312 347.73126Q346.95312 347.3719 346.64062 347.16876Q346.42188 347.02814 345.5625 346.8094Q344.40625 346.5125 343.95312 346.3094Q343.51562 346.09064 343.28125 345.71564Q343.04688 345.34064 343.04688 344.8719Q343.04688 344.46564 343.23438 344.10626Q343.42188 343.7469 343.75 343.5125Q344.0 343.34064 344.42188 343.21564Q344.84375 343.09064 345.34375 343.09064Q346.0625 343.09064 346.60938 343.3094Q347.17188 343.5125 347.4375 343.8719Q347.70312 344.23126 347.79688 344.825L346.76562 344.96564Q346.70312 344.4969 346.35938 344.23126Q346.03125 343.95 345.40625 343.95Q344.6875 343.95 344.375 344.2Q344.0625 344.4344 344.0625 344.7625Q344.0625 344.96564 344.1875 345.1219Q344.32812 345.29376 344.59375 345.40314Q344.75 345.46564 345.53125 345.66876Q346.65625 345.98126 347.09375 346.16876Q347.53125 346.35626 347.78125 346.71564Q348.03125 347.075 348.03125 347.6219Q348.03125 348.15314 347.71875 348.6219Q347.42188 349.075 346.84375 349.34064Q346.26562 349.59064 345.53125 349.59064Q344.3125 349.59064 343.67188 349.09064Q343.04688 348.575 342.875 347.59064Z" fill-rule="nonzero"/><path fill="#000000" d="M40.05 300.21564Q40.05 298.6844 40.3625 297.7625Q40.675 296.825 41.284374 296.325Q41.909374 295.825 42.846874 295.825Q43.534374 295.825 44.05 296.10626Q44.58125 296.3875 44.925 296.91876Q45.26875 297.4344 45.45625 298.1844Q45.64375 298.9344 45.64375 300.21564Q45.64375 301.73126 45.33125 302.65314Q45.034374 303.575 44.409374 304.09064Q43.8 304.59064 42.846874 304.59064Q41.6125 304.59064 40.89375 303.7Q40.05 302.6375 40.05 300.21564ZM41.128124 300.21564Q41.128124 302.325 41.628124 303.02814Q42.128124 303.73126 42.846874 303.73126Q43.58125 303.73126 44.065624 303.02814Q44.565624 302.325 44.565624 300.21564Q44.565624 298.09064 44.065624 297.40314Q43.58125 296.7 42.83125 296.7Q42.1125 296.7 41.675 297.3094Q41.128124 298.09064 41.128124 300.21564Z" fill-rule="nonzero"/><path fill="#000000" d="M31.596874 243.80104L31.596874 244.81667L25.909374 244.81667Q25.909374 244.44167 26.034374 244.08229Q26.253124 243.50417 26.721874 242.94167Q27.20625 242.37917 28.1125 241.64479Q29.51875 240.48854 30.003124 239.81667Q30.503124 239.14479 30.503124 238.55104Q30.503124 237.92604 30.05 237.50417Q29.596874 237.06667 28.878124 237.06667Q28.1125 237.06667 27.659374 237.51979Q27.20625 237.97292 27.190624 238.78542L26.1125 238.67604Q26.221874 237.45729 26.940624 236.83229Q27.675 236.19167 28.909374 236.19167Q30.14375 236.19167 30.8625 236.87917Q31.58125 237.56667 31.58125 238.58229Q31.58125 239.09792 31.3625 239.59792Q31.159374 240.08229 30.659374 240.64479Q30.175 241.19167 29.05 242.14479Q28.096874 242.94167 27.815624 243.23854Q27.55 243.51979 27.378124 243.80104L31.596874 243.80104ZM33.05 242.56667L34.159374 242.47292Q34.284374 243.28542 34.721874 243.69167Q35.175 244.09792 35.815624 244.09792Q36.565624 244.09792 37.096874 243.51979Q37.628124 242.94167 37.628124 242.00417Q37.628124 241.09792 37.1125 240.58229Q36.6125 240.05104 35.784374 240.05104Q35.284374 240.05104 34.8625 240.28542Q34.45625 240.51979 34.221874 240.87917L33.2375 240.75417L34.065624 236.34792L38.346874 236.34792L38.346874 237.34792L34.909374 237.34792L34.45625 239.66042Q35.221874 239.11354 36.065624 239.11354Q37.190624 239.11354 37.95625 239.89479Q38.7375 240.67604 38.7375 241.91042Q38.7375 243.06667 38.065624 243.92604Q37.2375 244.95729 35.815624 244.95729Q34.64375 244.95729 33.89375 244.30104Q33.159374 243.64479 33.05 242.56667ZM40.05 240.58229Q40.05 239.05104 40.3625 238.12917Q40.675 237.19167 41.284374 236.69167Q41.909374 236.19167 42.846874 236.19167Q43.534374 236.19167 44.05 236.47292Q44.58125 236.75417 44.925 237.28542Q45.26875 237.80104 45.45625 238.55104Q45.64375 239.30104 45.64375 240.58229Q45.64375 242.09792 45.33125 243.01979Q45.034374 243.94167 44.409374 244.45729Q43.8 244.95729 42.846874 244.95729Q41.6125 244.95729 40.89375 244.06667Q40.05 243.00417 40.05 240.58229ZM41.128124 240.58229Q41.128124 242.69167 41.628124 243.39479Q42.128124 244.09792 42.846874 244.09792Q43.58125 244.09792 44.065624 243.39479Q44.565624 242.69167 44.565624 240.58229Q44.565624 238.45729 44.065624 237.76979Q43.58125 237.06667 42.83125 237.06667Q42.1125 237.06667 41.675 237.67604Q41.128124 238.45729 41.128124 240.58229Z" fill-rule="nonzero"/><path fill="#000000" d="M26.05 182.93333L27.159374 182.83958Q27.284374 183.65208 27.721874 184.05833Q28.175 184.46458 28.815624 184.46458Q29.565624 184.46458 30.096874 183.88646Q30.628124 183.30833 30.628124 182.37083Q30.628124 181.46458 30.1125 180.94896Q29.6125 180.41771 28.784374 180.41771Q28.284374 180.41771 27.8625 180.65208Q27.45625 180.88646 27.221874 181.24583L26.2375 181.12083L27.065624 176.71458L31.346874 176.71458L31.346874 177.71458L27.909374 177.71458L27.45625 180.02708Q28.221874 179.48021 29.065624 179.48021Q30.190624 179.48021 30.95625 180.26146Q31.7375 181.04271 31.7375 182.27708Q31.7375 183.43333 31.065624 184.29271Q30.2375 185.32396 28.815624 185.32396Q27.64375 185.32396 26.89375 184.66771Q26.159374 184.01146 26.05 182.93333ZM33.05 180.94896Q33.05 179.41771 33.3625 178.49583Q33.675 177.55833 34.284374 177.05833Q34.909374 176.55833 35.846874 176.55833Q36.534374 176.55833 37.05 176.83958Q37.58125 177.12083 37.925 177.65208Q38.26875 178.16771 38.45625 178.91771Q38.64375 179.66771 38.64375 180.94896Q38.64375 182.46458 38.33125 183.38646Q38.034374 184.30833 37.409374 184.82396Q36.8 185.32396 35.846874 185.32396Q34.6125 185.32396 33.89375 184.43333Q33.05 183.37083 33.05 180.94896ZM34.128124 180.94896Q34.128124 183.05833 34.628124 183.76146Q35.128124 184.46458 35.846874 184.46458Q36.58125 184.46458 37.065624 183.76146Q37.565624 183.05833 37.565624 180.94896Q37.565624 178.82396 37.065624 178.13646Q36.58125 177.43333 35.83125 177.43333Q35.1125 177.43333 34.675 178.04271Q34.128124 178.82396 34.128124 180.94896ZM40.05 180.94896Q40.05 179.41771 40.3625 178.49583Q40.675 177.55833 41.284374 177.05833Q41.909374 176.55833 42.846874 176.55833Q43.534374 176.55833 44.05 176.83958Q44.58125 177.12083 44.925 177.65208Q45.26875 178.16771 45.45625 178.91771Q45.64375 179.66771 45.64375 180.94896Q45.64375 182.46458 45.33125 183.38646Q45.034374 184.30833 44.409374 184.82396Q43.8 185.32396 42.846874 185.32396Q41.6125 185.32396 40.89375 184.43333Q40.05 183.37083 40.05 180.94896ZM41.128124 180.94896Q41.128124 183.05833 41.628124 183.76146Q42.128124 184.46458 42.846874 184.46458Q43.58125 184.46458 44.065624 183.76146Q44.565624 183.05833 44.565624 180.94896Q44.565624 178.82396 44.065624 178.13646Q43.58125 177.43333 42.83125 177.43333Q42.1125 177.43333 41.675 178.04271Q41.128124 178.82396 41.128124 180.94896Z" fill-rule="nonzero"/><path fill="#000000" d="M26.1125 118.08125L26.1125 117.06563L31.675 117.06563L31.675 117.89375Q30.8625 118.76875 30.05 120.22188Q29.253124 121.65938 28.815624 123.19063Q28.4875 124.26875 28.409374 125.55L27.315624 125.55Q27.33125 124.53438 27.70625 123.09688Q28.096874 121.65938 28.8 120.33125Q29.51875 119.00313 30.33125 118.08125L26.1125 118.08125ZM33.05 123.3L34.159374 123.20625Q34.284374 124.01875 34.721874 124.425Q35.175 124.83125 35.815624 124.83125Q36.565624 124.83125 37.096874 124.25313Q37.628124 123.675 37.628124 122.7375Q37.628124 121.83125 37.1125 121.31563Q36.6125 120.78438 35.784374 120.78438Q35.284374 120.78438 34.8625 121.01875Q34.45625 121.25313 34.221874 121.6125L33.2375 121.4875L34.065624 117.08125L38.346874 117.08125L38.346874 118.08125L34.909374 118.08125L34.45625 120.39375Q35.221874 119.84688 36.065624 119.84688Q37.190624 119.84688 37.95625 120.62813Q38.7375 121.40938 38.7375 122.64375Q38.7375 123.8 38.065624 124.65938Q37.2375 125.69063 35.815624 125.69063Q34.64375 125.69063 33.89375 125.03438Q33.159374 124.37813 33.05 123.3ZM40.05 121.31563Q40.05 119.78438 40.3625 118.8625Q40.675 117.925 41.284374 117.425Q41.909374 116.925 42.846874 116.925Q43.534374 116.925 44.05 117.20625Q44.58125 117.4875 44.925 118.01875Q45.26875 118.53438 45.45625 119.28438Q45.64375 120.03438 45.64375 121.31563Q45.64375 122.83125 45.33125 123.75313Q45.034374 124.675 44.409374 125.19063Q43.8 125.69063 42.846874 125.69063Q41.6125 125.69063 40.89375 124.8Q40.05 123.7375 40.05 121.31563ZM41.128124 121.31563Q41.128124 123.425 41.628124 124.12813Q42.128124 124.83125 42.846874 124.83125Q43.58125 124.83125 44.065624 124.12813Q44.565624 123.425 44.565624 121.31563Q44.565624 119.19063 44.065624 118.50313Q43.58125 117.8 42.83125 117.8Q42.1125 117.8 41.675 118.40938Q41.128124 119.19063 41.128124 121.31563Z" fill-rule="nonzero"/><path fill="#000000" d="M23.01875 65.916664L21.971874 65.916664L21.971874 59.197914Q21.58125 59.55729 20.95625 59.93229Q20.346874 60.291664 19.8625 60.46354L19.8625 59.447914Q20.7375 59.02604 21.39375 58.447914Q22.065624 57.854164 22.346874 57.291664L23.01875 57.291664L23.01875 65.916664ZM26.05 61.68229Q26.05 60.15104 26.3625 59.229164Q26.675 58.291664 27.284374 57.791664Q27.909374 57.291664 28.846874 57.291664Q29.534374 57.291664 30.05 57.572914Q30.58125 57.854164 30.925 58.385414Q31.26875 58.90104 31.45625 59.65104Q31.64375 60.40104 31.64375 61.68229Q31.64375 63.197914 31.33125 64.11979Q31.034374 65.041664 30.409374 65.55729Q29.8 66.05729 28.846874 66.05729Q27.6125 66.05729 26.89375 65.166664Q26.05 64.104164 26.05 61.68229ZM27.128124 61.68229Q27.128124 63.791664 27.628124 64.49479Q28.128124 65.197914 28.846874 65.197914Q29.58125 65.197914 30.065624 64.49479Q30.565624 63.791664 30.565624 61.68229Q30.565624 59.55729 30.065624 58.86979Q29.58125 58.166664 28.83125 58.166664Q28.1125 58.166664 27.675 58.77604Q27.128124 59.55729 27.128124 61.68229ZM33.05 61.68229Q33.05 60.15104 33.3625 59.229164Q33.675 58.291664 34.284374 57.791664Q34.909374 57.291664 35.846874 57.291664Q36.534374 57.291664 37.05 57.572914Q37.58125 57.854164 37.925 58.385414Q38.26875 58.90104 38.45625 59.65104Q38.64375 60.40104 38.64375 61.68229Q38.64375 63.197914 38.33125 64.11979Q38.034374 65.041664 37.409374 65.55729Q36.8 66.05729 35.846874 66.05729Q34.6125 66.05729 33.89375 65.166664Q33.05 64.104164 33.05 61.68229ZM34.128124 61.68229Q34.128124 63.791664 34.628124 64.49479Q35.128124 65.197914 35.846874 65.197914Q36.58125 65.197914 37.065624 64.49479Q37.565624 63.791664 37.565624 61.68229Q37.565624 59.55729 37.065624 58.86979Q36.58125 58.166664 35.83125 58.166664Q35.1125 58.166664 34.675 58.77604Q34.128124 59.55729 34.128124 61.68229ZM40.05 61.68229Q40.05 60.15104 40.3625 59.229164Q40.675 58.291664 41.284374 57.791664Q41.909374 57.291664 42.846874 57.291664Q43.534374 57.291664 44.05 57.572914Q44.58125 57.854164 44.925 58.385414Q45.26875 58.90104 45.45625 59.65104Q45.64375 60.40104 45.64375 61.68229Q45.64375 63.197914 45.33125 64.11979Q45.034374 65.041664 44.409374 65.55729Q43.8 66.05729 42.846874 66.05729Q41.6125 66.05729 40.89375 65.166664Q40.05 64.104164 40.05 61.68229ZM41.128124 61.68229Q41.128124 63.791664 41.628124 64.49479Q42.128124 65.197914 42.846874 65.197914Q43.58125 65.197914 44.065624 64.49479Q44.565624 63.791664 44.565624 61.68229Q44.565624 59.55729 44.065624 58.86979Q43.58125 58.166664 42.83125 58.166664Q42.1125 58.166664 41.675 58.77604Q41.128124 59.55729 41.128124 61.68229Z" fill-rule="nonzero"/><path fill="#000000" d="M71.80124 315.0125L72.83249 314.8719Q72.86374 315.85626 73.191864 316.21564Q73.51999 316.575 74.11374 316.575Q74.535614 316.575 74.848114 316.3875Q75.160614 316.1844 75.26999 315.85626Q75.39499 315.5125 75.39499 314.77814L75.39499 308.85626L76.51999 308.85626L76.51999 314.71564Q76.51999 315.79376 76.254364 316.3875Q76.004364 316.98126 75.441864 317.29376Q74.879364 317.59064 74.11374 317.59064Q72.98874 317.59064 72.379364 316.95Q71.785614 316.29376 71.80124 315.0125ZM82.316864 316.6844Q81.723114 317.1844 81.17624 317.3875Q80.64499 317.59064 80.01999 317.59064Q78.98874 317.59064 78.441864 317.09064Q77.89499 316.59064 77.89499 315.8094Q77.89499 315.35626 78.098114 314.98126Q78.30124 314.59064 78.64499 314.3719Q78.98874 314.1375 79.410614 314.02814Q79.70749 313.9344 80.348114 313.85626Q81.61374 313.71564 82.223114 313.4969Q82.223114 313.27814 82.223114 313.23126Q82.223114 312.575 81.92624 312.3094Q81.51999 311.96564 80.723114 311.96564Q79.98874 311.96564 79.629364 312.23126Q79.26999 312.48126 79.098114 313.1375L78.066864 312.9969Q78.20749 312.34064 78.535614 311.9344Q78.86374 311.52814 79.473114 311.3094Q80.08249 311.09064 80.879364 311.09064Q81.67624 311.09064 82.17624 311.27814Q82.67624 311.46564 82.910614 311.7469Q83.14499 312.02814 83.23874 312.46564Q83.285614 312.73126 83.285614 313.4344L83.285614 314.84064Q83.285614 316.3094 83.348114 316.7Q83.42624 317.09064 83.629364 317.45L82.51999 317.45Q82.36374 317.1219 82.316864 316.6844ZM82.223114 314.325Q81.64499 314.5594 80.504364 314.73126Q79.848114 314.825 79.58249 314.95Q79.316864 315.0594 79.160614 315.27814Q79.01999 315.4969 79.01999 315.77814Q79.01999 316.2 79.33249 316.48126Q79.660614 316.7625 80.26999 316.7625Q80.879364 316.7625 81.348114 316.4969Q81.83249 316.23126 82.05124 315.7625Q82.223114 315.40314 82.223114 314.71564L82.223114 314.325ZM85.254364 317.45L85.254364 311.23126L86.191864 311.23126L86.191864 312.10626Q86.879364 311.09064 88.17624 311.09064Q88.73874 311.09064 89.20749 311.29376Q89.691864 311.4969 89.92624 311.825Q90.160614 312.15314 90.254364 312.59064Q90.30124 312.8875 90.30124 313.6219L90.30124 317.45L89.254364 317.45L89.254364 313.66876Q89.254364 313.0125 89.129364 312.7Q89.004364 312.3875 88.691864 312.2Q88.379364 311.9969 87.95749 311.9969Q87.285614 311.9969 86.785614 312.4344Q86.30124 312.85626 86.30124 314.04376L86.30124 317.45L85.254364 317.45Z" fill-rule="nonzero"/><path fill="#000000" d="M114.76778 317.45L114.76778 308.85626L120.56465 308.85626L120.56465 309.8719L115.9084 309.8719L115.9084 312.52814L119.93965 312.52814L119.93965 313.54376L115.9084 313.54376L115.9084 317.45L114.76778 317.45ZM125.83028 315.45L126.92403 315.575Q126.67403 316.52814 125.9709 317.0594Q125.26778 317.59064 124.18965 317.59064Q122.83028 317.59064 122.01778 316.7469Q121.2209 315.90314 121.2209 314.3875Q121.2209 312.825 122.0334 311.96564Q122.8459 311.09064 124.12715 311.09064Q125.37715 311.09064 126.1584 311.9344Q126.95528 312.77814 126.95528 314.325Q126.95528 314.41876 126.95528 314.60626L122.31465 314.60626Q122.37715 315.6375 122.89278 316.1844Q123.4084 316.71564 124.18965 316.71564Q124.76778 316.71564 125.17403 316.41876Q125.5959 316.10626 125.83028 315.45ZM122.37715 313.7469L125.8459 313.7469Q125.7834 312.95 125.45528 312.5594Q124.93965 311.95 124.14278 311.95Q123.4084 311.95 122.9084 312.4344Q122.42403 312.91876 122.37715 313.7469ZM129.54903 317.45L128.56465 317.45L128.56465 308.85626L129.62715 308.85626L129.62715 311.91876Q130.29903 311.09064 131.33028 311.09064Q131.9084 311.09064 132.4084 311.325Q132.92403 311.54376 133.25215 311.96564Q133.5959 312.3875 133.7834 312.98126Q133.9709 313.575 133.9709 314.2469Q133.9709 315.84064 133.17403 316.71564Q132.37715 317.59064 131.2834 317.59064Q130.17403 317.59064 129.54903 316.66876L129.54903 317.45ZM129.5334 314.29376Q129.5334 315.40314 129.8459 315.90314Q130.3459 316.71564 131.18965 316.71564Q131.87715 316.71564 132.37715 316.1219Q132.89278 315.52814 132.89278 314.325Q132.89278 313.10626 132.4084 312.52814Q131.92403 311.95 131.23653 311.95Q130.54903 311.95 130.0334 312.5594Q129.5334 313.15314 129.5334 314.29376Z" fill-rule="nonzero"/><path fill="#000000" d="M157.99994 317.45L157.99994 308.85626L159.71869 308.85626L161.74994 314.9344Q162.03119 315.79376 162.15619 316.21564Q162.29681 315.7469 162.60931 314.84064L164.67181 308.85626L166.20306 308.85626L166.20306 317.45L165.10931 317.45L165.10931 310.2625L162.60931 317.45L161.57806 317.45L159.09369 310.1375L159.09369 317.45L157.99994 317.45ZM170.96869 316.6844Q170.37494 317.1844 169.82806 317.3875Q169.29681 317.59064 168.67181 317.59064Q167.64056 317.59064 167.09369 317.09064Q166.54681 316.59064 166.54681 315.8094Q166.54681 315.35626 166.74994 314.98126Q166.95306 314.59064 167.29681 314.3719Q167.64056 314.1375 168.06244 314.02814Q168.35931 313.9344 168.99994 313.85626Q170.26556 313.71564 170.87494 313.4969Q170.87494 313.27814 170.87494 313.23126Q170.87494 312.575 170.57806 312.3094Q170.17181 311.96564 169.37494 311.96564Q168.64056 311.96564 168.28119 312.23126Q167.92181 312.48126 167.74994 313.1375L166.71869 312.9969Q166.85931 312.34064 167.18744 311.9344Q167.51556 311.52814 168.12494 311.3094Q168.73431 311.09064 169.53119 311.09064Q170.32806 311.09064 170.82806 311.27814Q171.32806 311.46564 171.56244 311.7469Q171.79681 312.02814 171.89056 312.46564Q171.93744 312.73126 171.93744 313.4344L171.93744 314.84064Q171.93744 316.3094 171.99994 316.7Q172.07806 317.09064 172.28119 317.45L171.17181 317.45Q171.01556 317.1219 170.96869 316.6844ZM170.87494 314.325Q170.29681 314.5594 169.15619 314.73126Q168.49994 314.825 168.23431 314.95Q167.96869 315.0594 167.81244 315.27814Q167.67181 315.4969 167.67181 315.77814Q167.67181 316.2 167.98431 316.48126Q168.31244 316.7625 168.92181 316.7625Q169.53119 316.7625 169.99994 316.4969Q170.48431 316.23126 170.70306 315.7625Q170.87494 315.40314 170.87494 314.71564L170.87494 314.325ZM173.89056 317.45L173.89056 311.23126L174.84369 311.23126L174.84369 312.16876Q175.20306 311.5125 175.49994 311.3094Q175.81244 311.09064 176.18744 311.09064Q176.71869 311.09064 177.26556 311.41876L176.90619 312.40314Q176.51556 312.16876 176.14056 312.16876Q175.78119 312.16876 175.49994 312.3875Q175.23431 312.59064 175.12494 312.96564Q174.93744 313.52814 174.93744 314.1844L174.93744 317.45L173.89056 317.45Z" fill-rule="nonzero"/><path fill="#000000" d="M200.9196 317.45L204.21648 308.85626L205.43523 308.85626L208.95085 317.45L207.6696 317.45L206.65398 314.84064L203.07585 314.84064L202.12273 317.45L200.9196 317.45ZM203.40398 313.91876L206.31023 313.91876L205.4196 311.54376Q204.99773 310.46564 204.81023 309.7625Q204.63835 310.59064 204.34148 311.40314L203.40398 313.91876ZM208.7321 319.84064L208.7321 311.23126L209.68523 311.23126L209.68523 312.02814Q210.02898 311.5594 210.45085 311.325Q210.88835 311.09064 211.49773 311.09064Q212.2946 311.09064 212.90398 311.4969Q213.51335 311.90314 213.81023 312.65314Q214.12273 313.40314 214.12273 314.29376Q214.12273 315.2469 213.77898 316.0125Q213.45085 316.77814 212.7946 317.1844Q212.13835 317.59064 211.4196 317.59064Q210.88835 317.59064 210.46648 317.3719Q210.0446 317.1375 209.77898 316.8094L209.77898 319.84064L208.7321 319.84064ZM209.68523 314.3719Q209.68523 315.575 210.1696 316.15314Q210.65398 316.71564 211.34148 316.71564Q212.0446 316.71564 212.5446 316.1219Q213.0446 315.52814 213.0446 314.27814Q213.0446 313.09064 212.56023 312.5125Q212.07585 311.91876 211.38835 311.91876Q210.71648 311.91876 210.20085 312.54376Q209.68523 313.16876 209.68523 314.3719ZM215.71648 317.45L215.71648 311.23126L216.6696 311.23126L216.6696 312.16876Q217.02898 311.5125 217.32585 311.3094Q217.63835 311.09064 218.01335 311.09064Q218.5446 311.09064 219.09148 311.41876L218.7321 312.40314Q218.34148 312.16876 217.96648 312.16876Q217.6071 312.16876 217.32585 312.3875Q217.06023 312.59064 216.95085 312.96564Q216.76335 313.52814 216.76335 314.1844L216.76335 317.45L215.71648 317.45Z" fill-rule="nonzero"/><path fill="#000000" d="M243.15176 317.45L243.15176 308.85626L244.87051 308.85626L246.90176 314.9344Q247.18301 315.79376 247.30801 316.21564Q247.44864 315.7469 247.76114 314.84064L249.82364 308.85626L251.35489 308.85626L251.35489 317.45L250.26114 317.45L250.26114 310.2625L247.76114 317.45L246.72989 317.45L244.24551 310.1375L244.24551 317.45L243.15176 317.45ZM256.1205 316.6844Q255.52676 317.1844 254.97989 317.3875Q254.44864 317.59064 253.82364 317.59064Q252.79239 317.59064 252.24551 317.09064Q251.69864 316.59064 251.69864 315.8094Q251.69864 315.35626 251.90176 314.98126Q252.10489 314.59064 252.44864 314.3719Q252.79239 314.1375 253.21426 314.02814Q253.51114 313.9344 254.15176 313.85626Q255.41739 313.71564 256.02676 313.4969Q256.02676 313.27814 256.02676 313.23126Q256.02676 312.575 255.72989 312.3094Q255.32364 311.96564 254.52676 311.96564Q253.79239 311.96564 253.43301 312.23126Q253.07364 312.48126 252.90176 313.1375L251.87051 312.9969Q252.01114 312.34064 252.33926 311.9344Q252.66739 311.52814 253.27676 311.3094Q253.88614 311.09064 254.68301 311.09064Q255.47989 311.09064 255.97989 311.27814Q256.4799 311.46564 256.71426 311.7469Q256.94864 312.02814 257.0424 312.46564Q257.08926 312.73126 257.08926 313.4344L257.08926 314.84064Q257.08926 316.3094 257.15176 316.7Q257.2299 317.09064 257.433 317.45L256.32364 317.45Q256.1674 317.1219 256.1205 316.6844ZM256.02676 314.325Q255.44864 314.5594 254.30801 314.73126Q253.65176 314.825 253.38614 314.95Q253.12051 315.0594 252.96426 315.27814Q252.82364 315.4969 252.82364 315.77814Q252.82364 316.2 253.13614 316.48126Q253.46426 316.7625 254.07364 316.7625Q254.68301 316.7625 255.15176 316.4969Q255.63614 316.23126 255.85489 315.7625Q256.02676 315.40314 256.02676 314.71564L256.02676 314.325ZM259.01114 319.84064L258.88614 318.85626Q259.2299 318.95 259.4955 318.95Q259.83926 318.95 260.0424 318.825Q260.26114 318.71564 260.40176 318.5125Q260.4955 318.34064 260.7299 317.71564Q260.7455 317.6375 260.82364 317.46564L258.44864 311.23126L259.58926 311.23126L260.88614 314.825Q261.13614 315.5125 261.33926 316.27814Q261.52676 315.54376 261.77676 314.85626L263.1049 311.23126L264.15176 311.23126L261.7924 317.5594Q261.40176 318.575 261.19864 318.96564Q260.9174 319.4969 260.5424 319.73126Q260.183 319.98126 259.683 319.98126Q259.38614 319.98126 259.01114 319.84064Z" fill-rule="nonzero"/><path fill="#000000" d="M285.9308 315.0125L286.96204 314.8719Q286.9933 315.85626 287.3214 316.21564Q287.64954 316.575 288.2433 316.575Q288.66516 316.575 288.97766 316.3875Q289.29016 316.1844 289.39954 315.85626Q289.52454 315.5125 289.52454 314.77814L289.52454 308.85626L290.64954 308.85626L290.64954 314.71564Q290.64954 315.79376 290.3839 316.3875Q290.1339 316.98126 289.5714 317.29376Q289.0089 317.59064 288.2433 317.59064Q287.1183 317.59064 286.5089 316.95Q285.91516 316.29376 285.9308 315.0125ZM296.46204 317.45L296.46204 316.52814Q295.72766 317.59064 294.47766 317.59064Q293.9308 317.59064 293.4464 317.3875Q292.97766 317.16876 292.7433 316.85626Q292.5089 316.52814 292.41516 316.0594Q292.35266 315.7625 292.35266 315.075L292.35266 311.23126L293.41516 311.23126L293.41516 314.6844Q293.41516 315.4969 293.47766 315.79376Q293.5714 316.2 293.8839 316.45Q294.21204 316.6844 294.6964 316.6844Q295.16516 316.6844 295.5714 316.45Q295.9933 316.2 296.16516 315.77814Q296.35266 315.35626 296.35266 314.5594L296.35266 311.23126L297.39954 311.23126L297.39954 317.45L296.46204 317.45ZM299.3839 317.45L299.3839 311.23126L300.3214 311.23126L300.3214 312.10626Q301.0089 311.09064 302.3058 311.09064Q302.8683 311.09064 303.33704 311.29376Q303.8214 311.4969 304.0558 311.825Q304.29016 312.15314 304.3839 312.59064Q304.4308 312.8875 304.4308 313.6219L304.4308 317.45L303.3839 317.45L303.3839 313.66876Q303.3839 313.0125 303.2589 312.7Q303.1339 312.3875 302.8214 312.2Q302.5089 311.9969 302.08704 311.9969Q301.41516 311.9969 300.91516 312.4344Q300.4308 312.85626 300.4308 314.04376L300.4308 317.45L299.3839 317.45Z" fill-rule="nonzero"/><path fill="#000000" d="M330.7567 315.0125L331.78796 314.8719Q331.8192 315.85626 332.14734 316.21564Q332.47546 316.575 333.0692 316.575Q333.4911 316.575 333.8036 316.3875Q334.1161 316.1844 334.22546 315.85626Q334.35046 315.5125 334.35046 314.77814L334.35046 308.85626L335.47546 308.85626L335.47546 314.71564Q335.47546 315.79376 335.20984 316.3875Q334.95984 316.98126 334.39734 317.29376Q333.83484 317.59064 333.0692 317.59064Q331.9442 317.59064 331.33484 316.95Q330.7411 316.29376 330.7567 315.0125ZM341.28796 317.45L341.28796 316.52814Q340.5536 317.59064 339.3036 317.59064Q338.7567 317.59064 338.27234 317.3875Q337.8036 317.16876 337.5692 316.85626Q337.33484 316.52814 337.2411 316.0594Q337.1786 315.7625 337.1786 315.075L337.1786 311.23126L338.2411 311.23126L338.2411 314.6844Q338.2411 315.4969 338.3036 315.79376Q338.39734 316.2 338.70984 316.45Q339.03796 316.6844 339.52234 316.6844Q339.9911 316.6844 340.39734 316.45Q340.8192 316.2 340.9911 315.77814Q341.1786 315.35626 341.1786 314.5594L341.1786 311.23126L342.22546 311.23126L342.22546 317.45L341.28796 317.45ZM344.1786 317.45L344.1786 308.85626L345.2411 308.85626L345.2411 317.45L344.1786 317.45Z" fill-rule="nonzero"/><path fill="#000000" d="M370.72324 317.45L374.0201 308.85626L375.23886 308.85626L378.7545 317.45L377.47324 317.45L376.4576 314.84064L372.8795 314.84064L371.92636 317.45L370.72324 317.45ZM373.2076 313.91876L376.11386 313.91876L375.22324 311.54376Q374.80136 310.46564 374.61386 309.7625Q374.442 310.59064 374.1451 311.40314L373.2076 313.91876ZM382.61386 317.45L382.61386 316.52814Q381.8795 317.59064 380.6295 317.59064Q380.0826 317.59064 379.59824 317.3875Q379.1295 317.16876 378.8951 316.85626Q378.66074 316.52814 378.567 316.0594Q378.5045 315.7625 378.5045 315.075L378.5045 311.23126L379.567 311.23126L379.567 314.6844Q379.567 315.4969 379.6295 315.79376Q379.72324 316.2 380.03574 316.45Q380.36386 316.6844 380.84824 316.6844Q381.317 316.6844 381.72324 316.45Q382.1451 316.2 382.317 315.77814Q382.5045 315.35626 382.5045 314.5594L382.5045 311.23126L383.55136 311.23126L383.55136 317.45L382.61386 317.45ZM385.3326 317.96564L386.36386 318.1219Q386.42636 318.59064 386.72324 318.8094Q387.11386 319.10626 387.78574 319.10626Q388.5201 319.10626 388.91074 318.8094Q389.317 318.5125 389.4576 317.9969Q389.55136 317.66876 389.53574 316.6375Q388.84824 317.45 387.817 317.45Q386.53574 317.45 385.8326 316.52814Q385.1295 315.59064 385.1295 314.3094Q385.1295 313.41876 385.442 312.66876Q385.7701 311.90314 386.3795 311.4969Q386.98886 311.09064 387.817 311.09064Q388.92636 311.09064 389.6451 311.98126L389.6451 311.23126L390.61386 311.23126L390.61386 316.60626Q390.61386 318.0594 390.317 318.66876Q390.0201 319.27814 389.3795 319.6219Q388.73886 319.98126 387.80136 319.98126Q386.692 319.98126 386.0045 319.48126Q385.317 318.98126 385.3326 317.96564ZM386.2076 314.23126Q386.2076 315.45 386.692 316.0125Q387.17636 316.575 387.91074 316.575Q388.6451 316.575 389.1295 316.0125Q389.6295 315.45 389.6295 314.2625Q389.6295 313.1219 389.11386 312.54376Q388.61386 311.96564 387.8951 311.96564Q387.192 311.96564 386.692 312.54376Q386.2076 313.10626 386.2076 314.23126Z" fill-rule="nonzero"/><path fill="#000000" d="M413.61166 314.6844L414.67416 314.59064Q414.7523 315.2469 415.03354 315.65314Q415.3148 316.0594 415.8929 316.325Q416.48666 316.575 417.22104 316.575Q417.86166 316.575 418.36166 316.3875Q418.86166 316.1844 419.09604 315.85626Q419.34604 315.5125 419.34604 315.1219Q419.34604 314.71564 419.11166 314.41876Q418.8773 314.10626 418.34604 313.90314Q417.98666 313.7625 416.79916 313.48126Q415.6273 313.2 415.15854 312.95Q414.53354 312.6219 414.23666 312.15314Q413.9398 311.66876 413.9398 311.075Q413.9398 310.4344 414.29916 309.8719Q414.67416 309.29376 415.3773 309.0125Q416.09604 308.71564 416.9554 308.71564Q417.90854 308.71564 418.6429 309.02814Q419.3773 309.325 419.7679 309.9344Q420.15854 310.52814 420.1898 311.27814L419.09604 311.35626Q419.0023 310.54376 418.48666 310.1375Q417.98666 309.71564 417.0023 309.71564Q415.97104 309.71564 415.5023 310.09064Q415.03354 310.46564 415.03354 310.9969Q415.03354 311.46564 415.36166 311.7625Q415.6898 312.0594 417.0648 312.3719Q418.4554 312.6844 418.97104 312.91876Q419.72104 313.27814 420.0804 313.8094Q420.4398 314.325 420.4398 315.02814Q420.4398 315.71564 420.04916 316.325Q419.65854 316.91876 418.92416 317.2625Q418.1898 317.59064 417.2679 317.59064Q416.09604 317.59064 415.29916 317.2625Q414.5179 316.91876 414.0648 316.23126Q413.6273 315.54376 413.61166 314.6844ZM426.11166 315.45L427.2054 315.575Q426.9554 316.52814 426.2523 317.0594Q425.54916 317.59064 424.47104 317.59064Q423.11166 317.59064 422.29916 316.7469Q421.5023 315.90314 421.5023 314.3875Q421.5023 312.825 422.3148 311.96564Q423.1273 311.09064 424.40854 311.09064Q425.65854 311.09064 426.4398 311.9344Q427.23666 312.77814 427.23666 314.325Q427.23666 314.41876 427.23666 314.60626L422.59604 314.60626Q422.65854 315.6375 423.17416 316.1844Q423.6898 316.71564 424.47104 316.71564Q425.04916 316.71564 425.4554 316.41876Q425.8773 316.10626 426.11166 315.45ZM422.65854 313.7469L426.1273 313.7469Q426.0648 312.95 425.73666 312.5594Q425.22104 311.95 424.42416 311.95Q423.6898 311.95 423.1898 312.4344Q422.7054 312.91876 422.65854 313.7469ZM428.86166 319.84064L428.86166 311.23126L429.8148 311.23126L429.8148 312.02814Q430.15854 311.5594 430.5804 311.325Q431.0179 311.09064 431.6273 311.09064Q432.42416 311.09064 433.03354 311.4969Q433.6429 311.90314 433.9398 312.65314Q434.2523 313.40314 434.2523 314.29376Q434.2523 315.2469 433.90854 316.0125Q433.5804 316.77814 432.92416 317.1844Q432.2679 317.59064 431.54916 317.59064Q431.0179 317.59064 430.59604 317.3719Q430.17416 317.1375 429.90854 316.8094L429.90854 319.84064L428.86166 319.84064ZM429.8148 314.3719Q429.8148 315.575 430.29916 316.15314Q430.78354 316.71564 431.47104 316.71564Q432.17416 316.71564 432.67416 316.1219Q433.17416 315.52814 433.17416 314.27814Q433.17416 313.09064 432.6898 312.5125Q432.2054 311.91876 431.5179 311.91876Q430.84604 311.91876 430.3304 312.54376Q429.8148 313.16876 429.8148 314.3719Z" fill-rule="nonzero"/><path fill="#000000" d="M458.4688 313.2625Q458.4688 311.1219 459.60944 309.91876Q460.7657 308.7 462.5782 308.7Q463.7813 308.7 464.73444 309.27814Q465.68756 309.84064 466.18756 310.85626Q466.68756 311.8719 466.68756 313.16876Q466.68756 314.46564 466.1563 315.4969Q465.62506 316.52814 464.6563 317.0594Q463.7032 317.59064 462.5782 317.59064Q461.35944 317.59064 460.4063 317.0125Q459.4532 316.41876 458.9532 315.41876Q458.4688 314.40314 458.4688 313.2625ZM459.6407 313.27814Q459.6407 314.84064 460.4688 315.73126Q461.31256 316.6219 462.5782 316.6219Q463.85944 316.6219 464.68756 315.73126Q465.5157 314.825 465.5157 313.15314Q465.5157 312.10626 465.1563 311.325Q464.81256 310.54376 464.12506 310.1219Q463.43756 309.6844 462.5938 309.6844Q461.3907 309.6844 460.5157 310.5125Q459.6407 311.34064 459.6407 313.27814ZM471.75006 315.16876L472.7813 315.3094Q472.60944 316.3719 471.9063 316.98126Q471.2032 317.59064 470.18756 317.59064Q468.9063 317.59064 468.12506 316.7625Q467.35944 315.91876 467.35944 314.35626Q467.35944 313.35626 467.68756 312.60626Q468.0313 311.84064 468.7032 311.46564Q469.3907 311.09064 470.2032 311.09064Q471.2032 311.09064 471.8438 311.60626Q472.50006 312.10626 472.68756 313.0594L471.6563 313.21564Q471.5157 312.59064 471.1407 312.27814Q470.7657 311.95 470.23444 311.95Q469.43756 311.95 468.93756 312.52814Q468.43756 313.09064 468.43756 314.325Q468.43756 315.59064 468.92194 316.15314Q469.4063 316.71564 470.17194 316.71564Q470.79694 316.71564 471.2032 316.34064Q471.62506 315.96564 471.75006 315.16876ZM475.98444 316.5125L476.1407 317.4344Q475.68756 317.52814 475.3438 317.52814Q474.7657 317.52814 474.4532 317.35626Q474.1407 317.16876 474.00006 316.8719Q473.87506 316.575 473.87506 315.6219L473.87506 312.04376L473.10944 312.04376L473.10944 311.23126L473.87506 311.23126L473.87506 309.6844L474.92194 309.0594L474.92194 311.23126L475.98444 311.23126L475.98444 312.04376L474.92194 312.04376L474.92194 315.6844Q474.92194 316.1375 474.9688 316.2625Q475.0313 316.3875 475.1563 316.46564Q475.2813 316.54376 475.5157 316.54376Q475.7032 316.54376 475.98444 316.5125Z" fill-rule="nonzero"/><path fill="#000000" d="M500.1385 317.45L500.1385 308.85626L501.29474 308.85626L505.81036 315.60626L505.81036 308.85626L506.9041 308.85626L506.9041 317.45L505.73224 317.45L501.2166 310.7L501.2166 317.45L500.1385 317.45ZM508.62286 314.34064Q508.62286 312.60626 509.576 311.77814Q510.37286 311.09064 511.5291 311.09064Q512.81036 311.09064 513.62286 311.9344Q514.451 312.7625 514.451 314.2469Q514.451 315.45 514.0916 316.1375Q513.73224 316.825 513.0291 317.21564Q512.3416 317.59064 511.5291 317.59064Q510.23224 317.59064 509.41974 316.7625Q508.62286 315.91876 508.62286 314.34064ZM509.701 314.34064Q509.701 315.52814 510.2166 316.1219Q510.74786 316.71564 511.5291 316.71564Q512.326 316.71564 512.8416 316.1219Q513.35724 315.52814 513.35724 314.3094Q513.35724 313.15314 512.826 312.5594Q512.31036 311.96564 511.5291 311.96564Q510.74786 311.96564 510.2166 312.5594Q509.701 313.1375 509.701 314.34064ZM517.73224 317.45L515.37286 311.23126L516.48224 311.23126L517.826 314.95Q518.0291 315.5594 518.2166 316.2Q518.35724 315.71564 518.60724 315.02814L519.99786 311.23126L521.076 311.23126L518.7166 317.45L517.73224 317.45Z" fill-rule="nonzero"/><path fill="#000000" d="M542.46436 317.45L542.46436 308.85626L545.4331 308.85626Q546.4331 308.85626 546.96436 308.98126Q547.6987 309.15314 548.21436 309.59064Q548.90186 310.16876 549.23 311.075Q549.5737 311.96564 549.5737 313.10626Q549.5737 314.09064 549.33936 314.84064Q549.1206 315.59064 548.7612 316.09064Q548.40186 316.59064 547.96436 316.8719Q547.5425 317.15314 546.9487 317.3094Q546.355 317.45 545.5737 317.45L542.46436 317.45ZM543.605 316.4344L545.4331 316.4344Q546.2925 316.4344 546.77686 316.27814Q547.2612 316.1219 547.5425 315.825Q547.9487 315.4344 548.1675 314.7469Q548.40186 314.0594 548.40186 313.09064Q548.40186 311.7469 547.9487 311.02814Q547.5112 310.29376 546.8862 310.04376Q546.4175 309.8719 545.4175 309.8719L543.605 309.8719L543.605 316.4344ZM555.58936 315.45L556.6831 315.575Q556.4331 316.52814 555.73 317.0594Q555.02686 317.59064 553.9487 317.59064Q552.58936 317.59064 551.77686 316.7469Q550.98 315.90314 550.98 314.3875Q550.98 312.825 551.7925 311.96564Q552.605 311.09064 553.8862 311.09064Q555.1362 311.09064 555.9175 311.9344Q556.71436 312.77814 556.71436 314.325Q556.71436 314.41876 556.71436 314.60626L552.0737 314.60626Q552.1362 315.6375 552.65186 316.1844Q553.1675 316.71564 553.9487 316.71564Q554.52686 316.71564 554.9331 316.41876Q555.355 316.10626 555.58936 315.45ZM552.1362 313.7469L555.605 313.7469Q555.5425 312.95 555.21436 312.5594Q554.6987 311.95 553.90186 311.95Q553.1675 311.95 552.6675 312.4344Q552.1831 312.91876 552.1362 313.7469ZM562.40186 315.16876L563.4331 315.3094Q563.2612 316.3719 562.5581 316.98126Q561.855 317.59064 560.83936 317.59064Q559.5581 317.59064 558.77686 316.7625Q558.0112 315.91876 558.0112 314.35626Q558.0112 313.35626 558.33936 312.60626Q558.6831 311.84064 559.355 311.46564Q560.0425 311.09064 560.855 311.09064Q561.855 311.09064 562.4956 311.60626Q563.15186 312.10626 563.33936 313.0594L562.3081 313.21564Q562.1675 312.59064 561.7925 312.27814Q561.4175 311.95 560.8862 311.95Q560.08936 311.95 559.58936 312.52814Q559.08936 313.09064 559.08936 314.325Q559.08936 315.59064 559.5737 316.15314Q560.0581 316.71564 560.8237 316.71564Q561.4487 316.71564 561.855 316.34064Q562.27686 315.96564 562.40186 315.16876Z" fill-rule="nonzero"/><path fill="#757575" d="M20.096874 37.55L20.096874 23.2375L25.01875 23.2375Q26.690624 23.2375 27.58125 23.440624Q28.8 23.721874 29.675 24.45625Q30.8 25.425 31.3625 26.909374Q31.925 28.39375 31.925 30.315624Q31.925 31.940624 31.55 33.20625Q31.175 34.45625 30.565624 35.284374Q29.971874 36.1125 29.26875 36.596874Q28.565624 37.065624 27.565624 37.315624Q26.565624 37.55 25.253124 37.55L20.096874 37.55ZM21.9875 35.8625L25.05 35.8625Q26.45625 35.8625 27.253124 35.596874Q28.065624 35.33125 28.55 34.846874Q29.221874 34.175 29.596874 33.05Q29.971874 31.909374 29.971874 30.284374Q29.971874 28.034374 29.2375 26.83125Q28.503124 25.628124 27.440624 25.221874Q26.690624 24.925 25.003124 24.925L21.9875 24.925L21.9875 35.8625ZM40.64375 36.26875Q39.659374 37.096874 38.753124 37.440624Q37.846874 37.784374 36.815624 37.784374Q35.1125 37.784374 34.190624 36.95625Q33.26875 36.1125 33.26875 34.815624Q33.26875 34.05 33.6125 33.425Q33.971874 32.8 34.534374 32.425Q35.096874 32.034374 35.8 31.83125Q36.315624 31.70625 37.3625 31.565624Q39.4875 31.315624 40.4875 30.971874Q40.503124 30.6125 40.503124 30.503124Q40.503124 29.440624 40.003124 28.9875Q39.33125 28.39375 38.003124 28.39375Q36.753124 28.39375 36.159374 28.83125Q35.58125 29.26875 35.3 30.378124L33.58125 30.14375Q33.815624 29.034374 34.346874 28.3625Q34.878124 27.675 35.89375 27.315624Q36.909374 26.940624 38.253124 26.940624Q39.58125 26.940624 40.409374 27.253124Q41.2375 27.565624 41.628124 28.05Q42.01875 28.51875 42.175 29.2375Q42.26875 29.690624 42.26875 30.8625L42.26875 33.20625Q42.26875 35.659374 42.378124 36.315624Q42.4875 36.95625 42.83125 37.55L40.9875 37.55Q40.721874 37.003124 40.64375 36.26875ZM40.4875 32.346874Q39.534374 32.7375 37.6125 33.003124Q36.534374 33.159374 36.08125 33.3625Q35.64375 33.55 35.39375 33.925Q35.14375 34.3 35.14375 34.76875Q35.14375 35.471874 35.675 35.940624Q36.20625 36.409374 37.2375 36.409374Q38.253124 36.409374 39.034374 35.971874Q39.83125 35.51875 40.20625 34.753124Q40.4875 34.14375 40.4875 32.9875L40.4875 32.346874ZM44.878124 25.253124L44.878124 23.2375L46.64375 23.2375L46.64375 25.253124L44.878124 25.253124ZM44.878124 37.55L44.878124 27.175L46.64375 27.175L46.64375 37.55L44.878124 37.55ZM48.83125 37.55L48.83125 23.2375L50.58125 23.2375L50.58125 37.55L48.83125 37.55ZM52.784374 41.55L52.596874 39.89375Q53.175 40.05 53.596874 40.05Q54.190624 40.05 54.534374 39.846874Q54.89375 39.659374 55.1125 39.315624Q55.284374 39.05 55.659374 38.003124Q55.70625 37.846874 55.815624 37.565624L51.878124 27.175L53.76875 27.175L55.925 33.190624Q56.346874 34.33125 56.675 35.58125Q56.9875 34.378124 57.39375 33.221874L59.6125 27.175L61.378124 27.175L57.425 37.721874Q56.8 39.440624 56.440624 40.08125Q55.971874 40.95625 55.3625 41.346874Q54.76875 41.753124 53.925 41.753124Q53.409374 41.753124 52.784374 41.55ZM68.45625 32.95625L70.2375 32.8Q70.3625 33.8625 70.81563 34.55Q71.28438 35.2375 72.25313 35.675Q73.2375 36.096874 74.47188 36.096874Q75.55 36.096874 76.37813 35.784374Q77.20625 35.45625 77.6125 34.89375Q78.01875 34.33125 78.01875 33.659374Q78.01875 32.9875 77.62813 32.4875Q77.2375 31.9875 76.34688 31.64375Q75.76875 31.409374 73.78438 30.940624Q71.81563 30.471874 71.03438 30.05Q70.00313 29.51875 69.50313 28.721874Q69.00313 27.925 69.00313 26.940624Q69.00313 25.846874 69.6125 24.909374Q70.22188 23.971874 71.40938 23.4875Q72.59688 22.9875 74.03438 22.9875Q75.62813 22.9875 76.84688 23.503124Q78.06563 24.01875 78.70625 25.01875Q79.3625 26.003124 79.40938 27.26875L77.59688 27.409374Q77.45625 26.05 76.6125 25.3625Q75.76875 24.659374 74.1125 24.659374Q72.39375 24.659374 71.59688 25.3Q70.81563 25.925 70.81563 26.8Q70.81563 27.58125 71.37813 28.08125Q71.925 28.58125 74.2375 29.096874Q76.55 29.6125 77.40938 30.003124Q78.65938 30.58125 79.25313 31.471874Q79.84688 32.346874 79.84688 33.503124Q79.84688 34.64375 79.19063 35.659374Q78.53438 36.675 77.3 37.2375Q76.08125 37.8 74.55 37.8Q72.6125 37.8 71.3 37.2375Q69.9875 36.659374 69.2375 35.51875Q68.4875 34.378124 68.45625 32.95625ZM88.64375 36.26875Q87.65938 37.096874 86.75313 37.440624Q85.84688 37.784374 84.81563 37.784374Q83.1125 37.784374 82.19063 36.95625Q81.26875 36.1125 81.26875 34.815624Q81.26875 34.05 81.6125 33.425Q81.97188 32.8 82.53438 32.425Q83.09688 32.034374 83.8 31.83125Q84.31563 31.70625 85.3625 31.565624Q87.4875 31.315624 88.4875 30.971874Q88.50313 30.6125 88.50313 30.503124Q88.50313 29.440624 88.00313 28.9875Q87.33125 28.39375 86.00313 28.39375Q84.75313 28.39375 84.15938 28.83125Q83.58125 29.26875 83.3 30.378124L81.58125 30.14375Q81.81563 29.034374 82.34688 28.3625Q82.87813 27.675 83.89375 27.315624Q84.90938 26.940624 86.25313 26.940624Q87.58125 26.940624 88.40938 27.253124Q89.2375 27.565624 89.62813 28.05Q90.01875 28.51875 90.175 29.2375Q90.26875 29.690624 90.26875 30.8625L90.26875 33.20625Q90.26875 35.659374 90.37813 36.315624Q90.4875 36.95625 90.83125 37.55L88.9875 37.55Q88.72188 37.003124 88.64375 36.26875ZM88.4875 32.346874Q87.53438 32.7375 85.6125 33.003124Q84.53438 33.159374 84.08125 33.3625Q83.64375 33.55 83.39375 33.925Q83.14375 34.3 83.14375 34.76875Q83.14375 35.471874 83.675 35.940624Q84.20625 36.409374 85.2375 36.409374Q86.25313 36.409374 87.03438 35.971874Q87.83125 35.51875 88.20625 34.753124Q88.4875 34.14375 88.4875 32.9875L88.4875 32.346874ZM92.83125 37.55L92.83125 23.2375L94.58125 23.2375L94.58125 37.55L92.83125 37.55ZM103.97188 34.20625L105.78438 34.440624Q105.3625 36.01875 104.19063 36.909374Q103.03438 37.784374 101.22188 37.784374Q98.95625 37.784374 97.6125 36.39375Q96.28438 34.9875 96.28438 32.45625Q96.28438 29.83125 97.62813 28.39375Q98.97188 26.940624 101.12813 26.940624Q103.20625 26.940624 104.51875 28.3625Q105.84688 29.76875 105.84688 32.346874Q105.84688 32.503124 105.83125 32.815624L98.09688 32.815624Q98.19063 34.51875 99.06563 35.425Q99.94063 36.33125 101.2375 36.33125Q102.20625 36.33125 102.87813 35.83125Q103.56563 35.315624 103.97188 34.20625ZM98.19063 31.3625L103.9875 31.3625Q103.87813 30.065624 103.33125 29.409374Q102.4875 28.39375 101.14375 28.39375Q99.94063 28.39375 99.1125 29.20625Q98.28438 30.003124 98.19063 31.3625ZM107.15938 34.45625L108.90938 34.175Q109.05 35.221874 109.72188 35.784374Q110.39375 36.33125 111.59688 36.33125Q112.8 36.33125 113.37813 35.846874Q113.97188 35.346874 113.97188 34.690624Q113.97188 34.096874 113.45625 33.753124Q113.09688 33.51875 111.65938 33.159374Q109.72188 32.659374 108.97188 32.315624Q108.2375 31.95625 107.84688 31.33125Q107.45625 30.690624 107.45625 29.925Q107.45625 29.2375 107.76875 28.64375Q108.09688 28.05 108.64375 27.659374Q109.05 27.3625 109.75313 27.159374Q110.47188 26.940624 111.28438 26.940624Q112.50313 26.940624 113.425 27.3Q114.34688 27.64375 114.78438 28.253124Q115.22188 28.846874 115.39375 29.846874L113.675 30.08125Q113.55 29.284374 112.9875 28.846874Q112.425 28.39375 111.40938 28.39375Q110.19063 28.39375 109.675 28.8Q109.15938 29.190624 109.15938 29.721874Q109.15938 30.065624 109.37813 30.346874Q109.58125 30.628124 110.05 30.815624Q110.31563 30.909374 111.59688 31.253124Q113.47188 31.753124 114.20625 32.08125Q114.94063 32.39375 115.3625 33.003124Q115.78438 33.596874 115.78438 34.503124Q115.78438 35.378124 115.26875 36.159374Q114.75313 36.940624 113.78438 37.3625Q112.81563 37.784374 111.59688 37.784374Q109.58125 37.784374 108.51875 36.940624Q107.45625 36.096874 107.15938 34.45625ZM127.7375 37.55L127.7375 24.925L123.01875 24.925L123.01875 23.2375L134.3625 23.2375L134.3625 24.925L129.62813 24.925L129.62813 37.55L127.7375 37.55ZM135.8625 37.55L135.8625 23.2375L137.62813 23.2375L137.62813 28.3625Q138.8625 26.940624 140.7375 26.940624Q141.87813 26.940624 142.72188 27.39375Q143.58125 27.846874 143.94063 28.659374Q144.31563 29.45625 144.31563 30.971874L144.31563 37.55L142.56563 37.55L142.56563 30.971874Q142.56563 29.659374 141.9875 29.065624Q141.40938 28.45625 140.37813 28.45625Q139.59688 28.45625 138.89375 28.8625Q138.20625 29.26875 137.90938 29.971874Q137.62813 30.659374 137.62813 31.878124L137.62813 37.55L135.8625 37.55ZM145.84688 37.55L145.84688 27.175L147.425 27.175L147.425 28.753124Q148.03438 27.64375 148.55 27.3Q149.06563 26.940624 149.675 26.940624Q150.56563 26.940624 151.4875 27.503124L150.87813 29.14375Q150.2375 28.753124 149.59688 28.753124Q149.01875 28.753124 148.55 29.1125Q148.09688 29.45625 147.89375 30.065624Q147.6125 31.003124 147.6125 32.1125L147.6125 37.55L145.84688 37.55ZM152.22188 32.3625Q152.22188 29.4875 153.81563 28.096874Q155.15938 26.940624 157.08125 26.940624Q159.22188 26.940624 160.56563 28.346874Q161.925 29.753124 161.925 32.221874Q161.925 34.221874 161.33125 35.378124Q160.7375 36.51875 159.58125 37.159374Q158.44063 37.784374 157.08125 37.784374Q154.89375 37.784374 153.55 36.39375Q152.22188 34.9875 152.22188 32.3625ZM154.01875 32.3625Q154.01875 34.3625 154.87813 35.346874Q155.75313 36.33125 157.08125 36.33125Q158.39375 36.33125 159.25313 35.346874Q160.12813 34.346874 160.12813 32.3Q160.12813 30.378124 159.25313 29.39375Q158.37813 28.39375 157.08125 28.39375Q155.75313 28.39375 154.87813 29.39375Q154.01875 30.378124 154.01875 32.3625ZM170.65938 37.55L170.65938 36.01875Q169.45625 37.784374 167.37813 37.784374Q166.45625 37.784374 165.65938 37.440624Q164.8625 37.08125 164.47188 36.55Q164.09688 36.01875 163.94063 35.2375Q163.83125 34.721874 163.83125 33.596874L163.83125 27.175L165.58125 27.175L165.58125 32.925Q165.58125 34.3 165.69063 34.784374Q165.8625 35.471874 166.39375 35.878124Q166.94063 36.26875 167.72188 36.26875Q168.51875 36.26875 169.20625 35.8625Q169.90938 35.45625 170.19063 34.76875Q170.4875 34.065624 170.4875 32.7375L170.4875 27.175L172.2375 27.175L172.2375 37.55L170.65938 37.55ZM173.55 38.409374L175.25313 38.659374Q175.3625 39.45625 175.84688 39.815624Q176.50313 40.3 177.64375 40.3Q178.8625 40.3 179.51875 39.815624Q180.19063 39.33125 180.425 38.45625Q180.56563 37.909374 180.55 36.190624Q179.39375 37.55 177.675 37.55Q175.53438 37.55 174.3625 36.003124Q173.19063 34.45625 173.19063 32.3Q173.19063 30.815624 173.72188 29.565624Q174.26875 28.315624 175.28438 27.628124Q176.31563 26.940624 177.69063 26.940624Q179.51875 26.940624 180.72188 28.425L180.72188 27.175L182.33125 27.175L182.33125 36.14375Q182.33125 38.565624 181.83125 39.565624Q181.34688 40.58125 180.26875 41.159374Q179.20625 41.753124 177.64375 41.753124Q175.8 41.753124 174.64375 40.925Q173.50313 40.096874 173.55 38.409374ZM175.00313 32.175Q175.00313 34.221874 175.81563 35.159374Q176.62813 36.096874 177.84688 36.096874Q179.05 36.096874 179.8625 35.159374Q180.69063 34.221874 180.69063 32.2375Q180.69063 30.33125 179.84688 29.3625Q179.00313 28.39375 177.81563 28.39375Q176.64375 28.39375 175.81563 29.346874Q175.00313 30.3 175.00313 32.175ZM184.8625 37.55L184.8625 23.2375L186.62813 23.2375L186.62813 28.3625Q187.8625 26.940624 189.7375 26.940624Q190.87813 26.940624 191.72188 27.39375Q192.58125 27.846874 192.94063 28.659374Q193.31563 29.45625 193.31563 30.971874L193.31563 37.55L191.56563 37.55L191.56563 30.971874Q191.56563 29.659374 190.9875 29.065624Q190.40938 28.45625 189.37813 28.45625Q188.59688 28.45625 187.89375 28.8625Q187.20625 29.26875 186.90938 29.971874Q186.62813 30.659374 186.62813 31.878124L186.62813 37.55L184.8625 37.55ZM194.22188 32.3625Q194.22188 29.4875 195.81563 28.096874Q197.15938 26.940624 199.08125 26.940624Q201.22188 26.940624 202.56563 28.346874Q203.925 29.753124 203.925 32.221874Q203.925 34.221874 203.33125 35.378124Q202.7375 36.51875 201.58125 37.159374Q200.44063 37.784374 199.08125 37.784374Q196.89375 37.784374 195.55 36.39375Q194.22188 34.9875 194.22188 32.3625ZM196.01875 32.3625Q196.01875 34.3625 196.87813 35.346874Q197.75313 36.33125 199.08125 36.33125Q200.39375 36.33125 201.25313 35.346874Q202.12813 34.346874 202.12813 32.3Q202.12813 30.378124 201.25313 29.39375Q200.37813 28.39375 199.08125 28.39375Q197.75313 28.39375 196.87813 29.39375Q196.01875 30.378124 196.01875 32.3625ZM212.65938 37.55L212.65938 36.01875Q211.45625 37.784374 209.37813 37.784374Q208.45625 37.784374 207.65938 37.440624Q206.8625 37.08125 206.47188 36.55Q206.09688 36.01875 205.94063 35.2375Q205.83125 34.721874 205.83125 33.596874L205.83125 27.175L207.58125 27.175L207.58125 32.925Q207.58125 34.3 207.69063 34.784374Q207.8625 35.471874 208.39375 35.878124Q208.94063 36.26875 209.72188 36.26875Q210.51875 36.26875 211.20625 35.8625Q211.90938 35.45625 212.19063 34.76875Q212.4875 34.065624 212.4875 32.7375L212.4875 27.175L214.2375 27.175L214.2375 37.55L212.65938 37.55ZM219.70625 35.971874L219.95625 37.534374Q219.22188 37.690624 218.62813 37.690624Q217.675 37.690624 217.14375 37.39375Q216.62813 37.08125 216.40938 36.596874Q216.19063 36.096874 216.19063 34.51875L216.19063 28.55L214.90938 28.55L214.90938 27.175L216.19063 27.175L216.19063 24.6125L217.94063 23.55L217.94063 27.175L219.70625 27.175L219.70625 28.55L217.94063 28.55L217.94063 34.6125Q217.94063 35.3625 218.03438 35.58125Q218.12813 35.784374 218.33125 35.925Q218.55 36.05 218.94063 36.05Q219.22188 36.05 219.70625 35.971874ZM231.7375 37.55L231.7375 24.925L227.01875 24.925L227.01875 23.2375L238.3625 23.2375L238.3625 24.925L233.62813 24.925L233.62813 37.55L231.7375 37.55ZM239.8625 37.55L239.8625 23.2375L241.62813 23.2375L241.62813 28.3625Q242.8625 26.940624 244.7375 26.940624Q245.87813 26.940624 246.72188 27.39375Q247.58125 27.846874 247.94063 28.659374Q248.31563 29.45625 248.31563 30.971874L248.31563 37.55L246.56563 37.55L246.56563 30.971874Q246.56563 29.659374 245.9875 29.065624Q245.40938 28.45625 244.37813 28.45625Q243.59688 28.45625 242.89375 28.8625Q242.20625 29.26875 241.90938 29.971874Q241.62813 30.659374 241.62813 31.878124L241.62813 37.55L239.8625 37.55ZM256.97186 34.20625L258.78436 34.440624Q258.3625 36.01875 257.1906 36.909374Q256.03436 37.784374 254.22188 37.784374Q251.95625 37.784374 250.6125 36.39375Q249.28438 34.9875 249.28438 32.45625Q249.28438 29.83125 250.62813 28.39375Q251.97188 26.940624 254.12813 26.940624Q256.20624 26.940624 257.51874 28.3625Q258.84686 29.76875 258.84686 32.346874Q258.84686 32.503124 258.83124 32.815624L251.09688 32.815624Q251.19063 34.51875 252.06563 35.425Q252.94063 36.33125 254.2375 36.33125Q255.20625 36.33125 255.87813 35.83125Q256.5656 35.315624 256.97186 34.20625ZM251.19063 31.3625L256.9875 31.3625Q256.8781 30.065624 256.33124 29.409374Q255.4875 28.39375 254.14375 28.39375Q252.94063 28.39375 252.1125 29.20625Q251.28438 30.003124 251.19063 31.3625ZM266.78436 41.55L266.59686 39.89375Q267.175 40.05 267.59686 40.05Q268.1906 40.05 268.53436 39.846874Q268.89374 39.659374 269.1125 39.315624Q269.28436 39.05 269.65936 38.003124Q269.70624 37.846874 269.8156 37.565624L265.8781 27.175L267.76874 27.175L269.925 33.190624Q270.34686 34.33125 270.675 35.58125Q270.9875 34.378124 271.39374 33.221874L273.6125 27.175L275.3781 27.175L271.425 37.721874Q270.8 39.440624 270.4406 40.08125Q269.97186 40.95625 269.3625 41.346874Q268.76874 41.753124 267.925 41.753124Q267.40936 41.753124 266.78436 41.55ZM283.97186 34.20625L285.78436 34.440624Q285.3625 36.01875 284.1906 36.909374Q283.03436 37.784374 281.22186 37.784374Q278.95624 37.784374 277.6125 36.39375Q276.28436 34.9875 276.28436 32.45625Q276.28436 29.83125 277.6281 28.39375Q278.97186 26.940624 281.1281 26.940624Q283.20624 26.940624 284.51874 28.3625Q285.84686 29.76875 285.84686 32.346874Q285.84686 32.503124 285.83124 32.815624L278.09686 32.815624Q278.1906 34.51875 279.0656 35.425Q279.9406 36.33125 281.2375 36.33125Q282.20624 36.33125 282.8781 35.83125Q283.5656 35.315624 283.97186 34.20625ZM278.1906 31.3625L283.9875 31.3625Q283.8781 30.065624 283.33124 29.409374Q282.4875 28.39375 281.14374 28.39375Q279.9406 28.39375 279.1125 29.20625Q278.28436 30.003124 278.1906 31.3625ZM294.64374 36.26875Q293.65936 37.096874 292.7531 37.440624Q291.84686 37.784374 290.8156 37.784374Q289.1125 37.784374 288.1906 36.95625Q287.26874 36.1125 287.26874 34.815624Q287.26874 34.05 287.6125 33.425Q287.97186 32.8 288.53436 32.425Q289.09686 32.034374 289.8 31.83125Q290.3156 31.70625 291.3625 31.565624Q293.4875 31.315624 294.4875 30.971874Q294.5031 30.6125 294.5031 30.503124Q294.5031 29.440624 294.0031 28.9875Q293.33124 28.39375 292.0031 28.39375Q290.7531 28.39375 290.15936 28.83125Q289.58124 29.26875 289.3 30.378124L287.58124 30.14375Q287.8156 29.034374 288.34686 28.3625Q288.8781 27.675 289.89374 27.315624Q290.90936 26.940624 292.2531 26.940624Q293.58124 26.940624 294.40936 27.253124Q295.2375 27.565624 295.6281 28.05Q296.01874 28.51875 296.175 29.2375Q296.26874 29.690624 296.26874 30.8625L296.26874 33.20625Q296.26874 35.659374 296.3781 36.315624Q296.4875 36.95625 296.83124 37.55L294.9875 37.55Q294.72186 37.003124 294.64374 36.26875ZM294.4875 32.346874Q293.53436 32.7375 291.6125 33.003124Q290.53436 33.159374 290.08124 33.3625Q289.64374 33.55 289.39374 33.925Q289.14374 34.3 289.14374 34.76875Q289.14374 35.471874 289.675 35.940624Q290.20624 36.409374 291.2375 36.409374Q292.2531 36.409374 293.03436 35.971874Q293.83124 35.51875 294.20624 34.753124Q294.4875 34.14375 294.4875 32.9875L294.4875 32.346874ZM298.84686 37.55L298.84686 27.175L300.425 27.175L300.425 28.753124Q301.03436 27.64375 301.55 27.3Q302.0656 26.940624 302.675 26.940624Q303.5656 26.940624 304.4875 27.503124L303.8781 29.14375Q303.2375 28.753124 302.59686 28.753124Q302.01874 28.753124 301.55 29.1125Q301.09686 29.45625 300.89374 30.065624Q300.6125 31.003124 300.6125 32.1125L300.6125 37.55L298.84686 37.55Z" fill-rule="nonzero"/></svg>